<svg width="27" height="27" viewBox="0 0 27 27" fill="none" xmlns="http://www.w3.org/2000/svg">
<path d="M4.60718 3.85714C4.60718 2.14111 5.99829 0.75 7.71432 0.75C9.43035 0.75 10.8215 2.14111 10.8215 3.85714C10.8215 4.85569 10.3512 5.74408 9.61712 6.31373C9.59085 6.33316 9.5648 6.35273 9.53898 6.37242C9.02673 6.74483 8.39723 6.96429 7.71432 6.96429C5.99829 6.96429 4.60718 5.57317 4.60718 3.85714Z" stroke="black" stroke-width="1.5"/>
<path d="M17.4611 6.37246C17.4352 6.3527 17.4091 6.33312 17.3829 6.31372C16.6488 5.74407 16.1786 4.85569 16.1786 3.85714C16.1786 2.14111 17.5697 0.75 19.2857 0.75C21.0018 0.75 22.3929 2.14111 22.3929 3.85714C22.3929 5.57318 21.0018 6.96429 19.2857 6.96429C18.6029 6.96429 17.9733 6.74484 17.4611 6.37246Z" stroke="black" stroke-width="1.5"/>
<path d="M10.808 10.0184L10.808 10.0184C11.3464 9.08773 12.3508 8.46429 13.5 8.46429C14.6491 8.46429 15.6535 9.08773 16.1919 10.0184L16.8221 9.65383L16.1919 10.0184C16.4558 10.4747 16.6071 11.0042 16.6071 11.5714C16.6071 13.2875 15.216 14.6786 13.5 14.6786C11.7839 14.6786 10.3928 13.2875 10.3928 11.5714C10.3928 11.0042 10.5441 10.4747 10.808 10.0184Z" stroke="black" stroke-width="1.5"/>
<path d="M2.89282 10.3929H7.0704C7.00066 10.7755 6.96429 11.1694 6.96429 11.5714C6.96429 12.7245 7.26335 13.8086 7.78777 14.7494C6.04228 15.0298 4.56875 16.1211 3.76416 17.6233C3.42219 17.4403 3.10204 17.2303 2.80718 16.9936L2.33772 17.5785L2.80718 16.9936C1.53436 15.972 0.75 14.4638 0.75 12.5357C0.75 11.3523 1.70939 10.3929 2.89282 10.3929Z" stroke="black" stroke-width="1.5"/>
<path d="M19.9296 10.3929H24.1072C25.2906 10.3929 26.25 11.3522 26.25 12.5357C26.25 14.4637 25.4657 15.972 24.193 16.9936L19.9296 10.3929ZM19.9296 10.3929C19.9993 10.7755 20.0357 11.1694 20.0357 11.5714C20.0357 12.7245 19.7366 13.8086 19.2122 14.7494M19.9296 10.3929L19.2122 14.7494M19.2122 14.7494C20.9577 15.0298 22.4313 16.121 23.2358 17.6233C23.5778 17.4403 23.8979 17.2303 24.1929 16.9937L19.2122 14.7494Z" stroke="black" stroke-width="1.5"/>
<path d="M8.59281 24.7079L8.59284 24.7079C9.86046 25.7254 11.5987 26.25 13.4999 26.25C15.4012 26.25 17.1394 25.7254 18.4071 24.7079C19.6798 23.6864 20.4642 22.1781 20.4642 20.25C20.4642 19.9595 20.4067 19.6839 20.3031 19.4328C19.9811 18.6533 19.2142 18.1071 18.3214 18.1071H8.67846C7.78556 18.1071 7.01851 18.6535 6.69668 19.433L8.59281 24.7079ZM8.59281 24.7079C7.32001 23.6864 6.53564 22.1782 6.53564 20.25M8.59281 24.7079L6.53564 20.25M6.53564 20.25C6.53564 19.9594 6.59313 19.6839 6.69667 19.433L6.53564 20.25Z" stroke="black" stroke-width="1.5"/>
</svg>
