<svg width="29" height="29" viewBox="0 0 29 29" fill="none" xmlns="http://www.w3.org/2000/svg">
<path d="M21.9191 26.1242C20.8558 26.4383 19.5991 26.5833 18.125 26.5833H10.875C9.40081 26.5833 8.14414 26.4383 7.08081 26.1242C7.34664 22.9825 10.5729 20.5054 14.5 20.5054C18.4271 20.5054 21.6533 22.9825 21.9191 26.1242Z" stroke="#292D32" stroke-width="1.5" stroke-linecap="round" stroke-linejoin="round"/>
<path d="M18.125 2.41667H10.875C4.83329 2.41667 2.41663 4.83334 2.41663 10.875V18.125C2.41663 22.6925 3.79413 25.1937 7.08079 26.1242C7.34663 22.9825 10.5729 20.5054 14.5 20.5054C18.427 20.5054 21.6533 22.9825 21.9191 26.1242C25.2058 25.1937 26.5833 22.6925 26.5833 18.125V10.875C26.5833 4.83334 24.1666 2.41667 18.125 2.41667ZM14.5 17.1221C12.1075 17.1221 10.1741 15.1767 10.1741 12.7842C10.1741 10.3917 12.1075 8.45834 14.5 8.45834C16.8925 8.45834 18.8258 10.3917 18.8258 12.7842C18.8258 15.1767 16.8925 17.1221 14.5 17.1221Z" stroke="#292D32" stroke-width="1.5" stroke-linecap="round" stroke-linejoin="round"/>
<path d="M18.8259 12.7842C18.8259 15.1767 16.8925 17.1221 14.5 17.1221C12.1075 17.1221 10.1742 15.1767 10.1742 12.7842C10.1742 10.3917 12.1075 8.45833 14.5 8.45833C16.8925 8.45833 18.8259 10.3917 18.8259 12.7842Z" stroke="#292D32" stroke-width="1.5" stroke-linecap="round" stroke-linejoin="round"/>
</svg>
