<svg width="29" height="23" viewBox="0 0 29 23" fill="none" xmlns="http://www.w3.org/2000/svg">
<path d="M25.1699 9.6749C25.1592 7.88278 23.7008 6.43106 21.9062 6.43106H13.6469H12.8969V7.18106V11.1312C12.8969 11.709 12.4292 12.1767 11.8514 12.1767C11.2736 12.1767 10.8059 11.709 10.8059 11.1312V5.46186C10.8059 5.22188 10.9278 5.00413 11.123 4.88368L11.123 4.88369L11.1262 4.88172L12.627 3.94535C12.6275 3.94508 12.6279 3.9448 12.6284 3.94453C12.9702 3.73372 13.3589 3.62184 13.7546 3.62184H18.3421H18.5431L18.7171 3.52136L23.3575 0.84218C23.3577 0.842058 23.3579 0.841937 23.3581 0.841815C23.6888 0.652036 24.1084 0.766765 24.295 1.09117L24.2956 1.09216L27.886 7.3126C27.8861 7.31278 27.8862 7.31295 27.8863 7.31313C28.0747 7.64139 27.9642 8.05925 27.6346 8.25151C27.6344 8.25166 27.6341 8.25181 27.6338 8.25197L25.1699 9.6749ZM7.86946 6.99853V11.1312C7.86946 13.3274 9.65512 15.1131 11.8514 15.1131C14.0476 15.1131 15.8333 13.3274 15.8333 11.1312V9.36747H21.9062C22.089 9.36747 22.2335 9.51198 22.2335 9.69477V11.8494C22.2335 12.0322 22.089 12.1767 21.9062 12.1767H21.5471H20.7971V12.9267V15.7995C20.7971 16.1798 20.491 16.4859 20.1107 16.4859H19.3925H18.6425V17.2359C18.6425 18.4062 17.69 19.3587 16.5197 19.3587H10.388H10.1871L10.013 19.4592L5.37272 22.1384C5.37266 22.1384 5.3726 22.1384 5.37255 22.1385C5.04173 22.3286 4.62186 22.2139 4.43519 21.8894L4.43462 21.8884L0.843606 15.667L0.842335 15.6648C0.652813 15.339 0.764985 14.9192 1.09316 14.7304L1.0943 14.7298L4.68532 12.656L5.06024 12.4394V12.0065V9.8833C5.06024 9.14078 5.45196 8.44802 6.09016 8.06775L6.09256 8.06631L7.86946 6.99853Z" stroke="black" stroke-width="1.5"/>
</svg>
